<svg xmlns="http://www.w3.org/2000/svg" xmlns:xlink="http://www.w3.org/1999/xlink" width="83" height="83" viewBox="0 0 83 83">
  <defs>
    <filter id="Ellipse_55" x="0" y="0" width="83" height="83" filterUnits="userSpaceOnUse">
      <feOffset dy="3" input="SourceAlpha"/>
      <feGaussianBlur stdDeviation="3" result="blur"/>
      <feFlood flood-opacity="0.161"/>
      <feComposite operator="in" in2="blur"/>
      <feComposite in="SourceGraphic"/>
    </filter>
    <linearGradient id="linear-gradient" x1="0.5" x2="0.5" y2="1" gradientUnits="objectBoundingBox">
      <stop offset="0" stop-color="#ffc400"/>
      <stop offset="1" stop-color="#f7ff00"/>
    </linearGradient>
  </defs>
  <g id="Group_1714" data-name="Group 1714" transform="translate(9 6)">
    <g transform="matrix(1, 0, 0, 1, -9, -6)" filter="url(#Ellipse_55)">
      <circle id="Ellipse_55-2" data-name="Ellipse 55" cx="32.5" cy="32.5" r="32.5" transform="translate(9 6)" fill="#fff"/>
    </g>
    <path id="Icon_weather-night-lightning" data-name="Icon weather-night-lightning" d="M14.342,37.07c-.081.435.081.653.57.653h8.84L18.375,50.69h1.181L36.586,33.338a.282.282,0,0,0,.081-.435.641.641,0,0,0-.57-.218H27.216L36.586,19.5c.285-.435.122-.684-.57-.684H24.038a1.191,1.191,0,0,0-.856.435Z" transform="translate(6.97 -2.253)" stroke="#000" stroke-width="1" fill="url(#linear-gradient)"/>
  </g>
</svg>
