<svg xmlns="http://www.w3.org/2000/svg" width="67.774" height="67.773" viewBox="0 0 67.774 67.773">
  <path id="Icon_awesome-bitcoin" data-name="Icon awesome-bitcoin" d="M68.336,34.449A33.887,33.887,0,1,1,34.449.563,33.887,33.887,0,0,1,68.336,34.449ZM48.981,29.622c.675-4.509-2.759-6.933-7.454-8.55l1.523-6.108-3.718-.927-1.483,5.947c-.978-.244-1.982-.473-2.979-.7L36.363,13.3l-3.716-.927-1.524,6.106c-.809-.184-1.6-.366-2.374-.558l0-.019-5.128-1.28-.989,3.971s2.759.632,2.7.671a1.978,1.978,0,0,1,1.733,2.162l-1.735,6.958a3.083,3.083,0,0,1,.387.124c-.124-.031-.256-.065-.393-.1L22.9,40.156a1.354,1.354,0,0,1-1.7.883c.037.054-2.7-.675-2.7-.675l-1.846,4.256,4.839,1.206c.9.226,1.782.462,2.651.684l-1.539,6.178,3.714.927L27.832,47.5q1.478.4,2.963.769l-1.519,6.084L33,55.282l1.539-6.166c6.341,1.2,11.109.716,13.116-5.018,1.617-4.617-.08-7.28-3.417-9.017,2.429-.56,4.26-2.158,4.748-5.459Zm-8.5,11.912c-1.149,4.617-8.924,2.121-11.444,1.5l2.042-8.185c2.52.629,10.6,1.874,9.4,6.689Zm1.15-11.979c-1.048,4.2-7.519,2.066-9.619,1.543l1.851-7.423C35.967,24.2,42.727,25.174,41.635,29.555Z" transform="translate(-0.563 -0.563)" fill="#fff"/>
</svg>
