<svg xmlns="http://www.w3.org/2000/svg" width="79.573" height="60.401" viewBox="0 0 79.573 60.401">
  <g id="collar" transform="translate(1 1)">
    <path id="dog-collar-svgrepo-com" d="M65.369,44c-7.132-2.348-16.572-3.641-26.583-3.641S19.336,41.649,12.2,44C2.117,47.317,0,51.573,0,54.558V68.741C0,71.726,2.117,75.982,12.2,79.3A80.253,80.253,0,0,0,31.866,82.73a7.9,7.9,0,0,0,4.783,3.83V89.1H33.742c0-.025,0-.05,0-.075a3.972,3.972,0,1,0-6.7,2.881,3.971,3.971,0,1,0,6.7,2.881c0-.025,0-.051,0-.076H43.831q0,.038,0,.076a3.972,3.972,0,1,0,6.7-2.881,3.971,3.971,0,1,0-6.7-2.881c0,.025,0,.05,0,.075H40.924V86.56a7.9,7.9,0,0,0,4.783-3.83A80.24,80.24,0,0,0,65.369,79.3c10.086-3.32,12.2-7.576,12.2-10.561V54.558C77.573,51.573,75.456,47.317,65.369,44ZM15.35,61.61C20.874,59.648,28.874,58.2,38.786,58.2S56.7,59.648,62.223,61.61a87.747,87.747,0,0,1-23.436,2.875A87.748,87.748,0,0,1,15.35,61.61ZM73.3,54.558c0,1.285-1.446,3.112-5.23,4.911A32.779,32.779,0,0,0,64.762,58V48.306C71.036,50.494,73.3,52.951,73.3,54.558Zm-59.757-6.5c6.712-2.21,15.678-3.426,25.246-3.426a90.97,90.97,0,0,1,21.7,2.407v9.556a82.764,82.764,0,0,0-21.7-2.667c-9.359,0-18.188,1.3-24.862,3.656a34.7,34.7,0,0,0-4.42,1.885c-3.783-1.8-5.23-3.627-5.23-4.911C4.276,52.89,6.71,50.307,13.54,48.058ZM38.786,82.582a3.592,3.592,0,1,1,3.592-3.592A3.6,3.6,0,0,1,38.786,82.582Z" transform="translate(0 -40.356)" fill="none" stroke="#fecb44" stroke-width="2"/>
  </g>
</svg>
