<svg xmlns="http://www.w3.org/2000/svg" width="87.436" height="43.725" viewBox="0 0 87.436 43.725">
  <path id="Icon_awesome-gamepad" data-name="Icon awesome-gamepad" d="M65.587,6.75H21.862a21.862,21.862,0,1,0,15.6,37.166h12.5A21.86,21.86,0,1,0,65.587,6.75ZM34.98,31.345a1.645,1.645,0,0,1-1.64,1.64H26.235V40.09a1.645,1.645,0,0,1-1.64,1.64H19.13a1.645,1.645,0,0,1-1.64-1.64V32.985H10.385a1.645,1.645,0,0,1-1.64-1.64V25.88a1.645,1.645,0,0,1,1.64-1.64H17.49V17.135a1.645,1.645,0,0,1,1.64-1.64H24.6a1.645,1.645,0,0,1,1.64,1.64V24.24H33.34a1.645,1.645,0,0,1,1.64,1.64Zm25.142,9.292a6.559,6.559,0,1,1,6.559-6.559A6.56,6.56,0,0,1,60.122,40.637ZM71.053,29.706a6.559,6.559,0,1,1,6.559-6.559A6.56,6.56,0,0,1,71.053,29.706Z" transform="translate(0 -6.75)" fill="#fff"/>
</svg>
