<svg xmlns="http://www.w3.org/2000/svg" width="71.792" height="56.326" viewBox="0 0 71.792 56.326">
  <path id="Icon_awesome-glasses" data-name="Icon awesome-glasses" d="M69.562,32.344,64.067,10.327A10.656,10.656,0,0,0,50.352,2.8L48.5,3.414a1.938,1.938,0,0,0-1.226,2.452l.613,1.839a1.938,1.938,0,0,0,2.451,1.226l1.6-.532a5.182,5.182,0,0,1,4.018.21,4.8,4.8,0,0,1,2.468,3.129l4.66,18.638a33.532,33.532,0,0,0-9.839-1.51,31.782,31.782,0,0,0-13.916,3.24H30.464a31.752,31.752,0,0,0-13.917-3.241,33.534,33.534,0,0,0-9.84,1.51l4.66-18.639a4.8,4.8,0,0,1,2.469-3.127,5.179,5.179,0,0,1,4.017-.21l1.6.532A1.938,1.938,0,0,0,21.9,7.7l.613-1.839a1.938,1.938,0,0,0-1.226-2.452L19.439,2.8A10.656,10.656,0,0,0,5.724,10.325L.23,32.344A7.781,7.781,0,0,0,0,34.221v8.512a13.88,13.88,0,0,0,13.958,13.8h4.5a13.9,13.9,0,0,0,13.92-12.767l.355-4.681h4.332l.355,4.681A13.893,13.893,0,0,0,51.336,56.533h4.5a13.88,13.88,0,0,0,13.958-13.8V34.223A7.784,7.784,0,0,0,69.562,32.344ZM24.643,43.179a6.166,6.166,0,0,1-6.187,5.6h-4.5a6.133,6.133,0,0,1-6.2-6.045V38.185a26.3,26.3,0,0,1,8.794-1.565,23.773,23.773,0,0,1,8.473,1.565l-.379,4.994Zm37.394-.445a6.132,6.132,0,0,1-6.2,6.044h-4.5a6.164,6.164,0,0,1-6.187-5.6l-.379-4.994a23.781,23.781,0,0,1,8.476-1.565,26.3,26.3,0,0,1,8.791,1.567v4.549Z" transform="translate(1 -1.207)" fill="none" stroke="#fecb44" stroke-width="2"/>
</svg>
