<svg xmlns="http://www.w3.org/2000/svg" width="82.794" height="51.211" viewBox="0 0 82.794 51.211">
  <g id="hat" transform="translate(1.5 1.5)">
    <g id="Group_546" data-name="Group 546">
      <path id="Path_109" data-name="Path 109" d="M63.376,8.211C61.232,12.784,52.6,18.325,39.9,18.325c-12.627,0-21.609-5.471-23.5-10.039C6.857,8.715,0,14.42,0,17.811c0,5.625,17.859,13.6,39.9,13.6s39.9-7.979,39.9-13.6c0-3.436-6.857-7.815-16.418-9.6Z" transform="translate(0 16.794)" fill="none" stroke="#fecb44" stroke-width="3" fill-rule="evenodd"/>
      <path id="Path_110" data-name="Path 110" d="M34.223,3.2c-2.573,0-7.89,1.765-10.3,1.765S16.2,3.2,13.631,3.2c-5.556,0-9.027,6.842-9.51,9.461l-.1,12.1A25.138,25.138,0,0,0,17.79,30.935a76.508,76.508,0,0,0,12.568,0,22.213,22.213,0,0,0,13.306-6.089l-.025-12.034C43.21,10.089,39.729,3.2,34.223,3.2Z" transform="translate(16.032 -3.197)" fill="none" stroke="#fecb44" stroke-width="3" fill-rule="evenodd"/>
    </g>
  </g>
</svg>
