<svg xmlns="http://www.w3.org/2000/svg" xmlns:xlink="http://www.w3.org/1999/xlink" width="129.804" height="129.804" viewBox="0 0 129.804 129.804">
  <defs>
    <filter id="Ellipse_57" x="0" y="0" width="129.804" height="129.804" filterUnits="userSpaceOnUse">
      <feOffset dy="3" input="SourceAlpha"/>
      <feGaussianBlur stdDeviation="3" result="blur"/>
      <feFlood flood-opacity="0.161"/>
      <feComposite operator="in" in2="blur"/>
      <feComposite in="SourceGraphic"/>
    </filter>
  </defs>
  <g id="Group_857" data-name="Group 857" transform="translate(9 6)">
    <g transform="matrix(1, 0, 0, 1, -9, -6)" filter="url(#Ellipse_57)">
      <g id="Ellipse_57-2" data-name="Ellipse 57" transform="translate(9 6)" fill="#ecb32c" stroke="#fff" stroke-width="5">
        <ellipse cx="55.902" cy="55.902" rx="55.902" ry="55.902" stroke="none"/>
        <ellipse cx="55.902" cy="55.902" rx="53.402" ry="53.402" fill="none"/>
      </g>
    </g>
    <path id="Icon_awesome-bone" data-name="Icon awesome-bone" d="M70.576,18.892a9.563,9.563,0,0,0,4.846-8.46V9.46C75.422,4.235,71.5,0,66.655,0a8.852,8.852,0,0,0-8.316,6.468c-.905,2.929-1.367,5.74-4.491,5.74H21.573c-3.227,0-3.722-3.248-4.491-5.74A8.85,8.85,0,0,0,8.767,0C3.924,0,0,4.235,0,9.46v.972a9.563,9.563,0,0,0,4.846,8.46,1.686,1.686,0,0,1,0,2.91A9.563,9.563,0,0,0,0,30.262v.972c0,5.225,3.924,9.46,8.765,9.46a8.852,8.852,0,0,0,8.316-6.468c.905-2.929,1.367-5.74,4.491-5.74H53.847c3.227,0,3.722,3.248,4.491,5.74a8.853,8.853,0,0,0,8.316,6.468c4.841,0,8.765-4.235,8.765-9.46v-.972a9.562,9.562,0,0,0-4.846-8.46A1.687,1.687,0,0,1,70.576,18.892Z" transform="translate(14.849 68.181) rotate(-45)" fill="#5f4831"/>
  </g>
</svg>
