<svg xmlns="http://www.w3.org/2000/svg" width="69.96" height="61.215" viewBox="0 0 69.96 61.215">
  <path id="Icon_awesome-wallet" data-name="Icon awesome-wallet" d="M63.019,15.367H10.931a2.186,2.186,0,1,1,0-4.372H63.4a2.186,2.186,0,0,0,2.186-2.186A6.559,6.559,0,0,0,59.029,2.25H8.745A8.744,8.744,0,0,0,0,10.995V54.72a8.744,8.744,0,0,0,8.745,8.745H63.019a6.765,6.765,0,0,0,6.941-6.559V21.926A6.765,6.765,0,0,0,63.019,15.367ZM56.842,43.789a4.372,4.372,0,1,1,4.372-4.372A4.373,4.373,0,0,1,56.842,43.789Z" transform="translate(0 -2.25)" fill="#fff"/>
</svg>
